<?xml version="1.0" standalone="no"?>
<!DOCTYPE svg PUBLIC "-//W3C//DTD SVG 20010904//EN"
 "http://www.w3.org/TR/2001/REC-SVG-20010904/DTD/svg10.dtd">
<svg version="1.0" xmlns="http://www.w3.org/2000/svg"
 width="192.000000pt" height="192.000000pt" viewBox="0 0 192.000000 192.000000"
 preserveAspectRatio="xMidYMid meet">
<metadata>
Created by potrace 1.14, written by Peter Selinger 2001-2017
</metadata>
<g transform="translate(0.000000,192.000000) scale(0.100000,-0.100000)"
fill="#000000" stroke="none">
<path d="M115 1901 c-48 -22 -79 -54 -100 -103 -13 -33 -15 -138 -15 -840 0
-759 1 -805 19 -843 22 -48 54 -79 103 -100 33 -13 138 -15 840 -15 759 0 805
1 843 19 48 22 79 54 100 103 13 33 15 138 15 838 0 700 -2 805 -15 838 -21
49 -52 81 -100 103 -38 18 -83 19 -845 19 -762 0 -807 -1 -845 -19z m975 -508
c0 -123 -7 -204 -26 -298 -6 -27 -10 -20 -38 60 -62 180 -97 214 -224 218
l-67 2 -7 -65 c-4 -36 -9 -207 -10 -380 -3 -308 -2 -316 20 -371 12 -32 40
-77 62 -101 l39 -45 -187 -7 c-103 -3 -206 -9 -230 -12 l-42 -7 24 44 c49 91
55 127 71 487 8 189 15 370 15 402 0 58 -1 60 -25 60 -38 0 -78 -24 -117 -69
-30 -36 -122 -206 -148 -275 -6 -16 -12 -27 -15 -25 -2 3 -9 94 -15 204 -6
110 -15 220 -19 245 -5 25 -8 47 -6 49 2 2 59 -3 127 -10 164 -17 374 -14 593
9 99 11 190 20 203 21 22 1 22 0 22 -136z m629 -308 c-27 -82 -49 -156 -49
-162 0 -28 -16 -10 -33 36 -20 58 -83 126 -140 152 -53 24 -148 25 -187 3 -50
-30 -80 -135 -46 -163 7 -6 85 -38 172 -70 161 -59 235 -91 266 -115 53 -40
75 -179 40 -246 -25 -47 -100 -96 -170 -111 -75 -16 -150 -3 -270 46 l-92 37
-42 -26 c-24 -14 -54 -34 -68 -44 -23 -16 -24 -16 -17 1 16 41 37 138 47 217
17 128 18 130 49 63 34 -70 78 -115 148 -150 109 -53 176 -38 201 45 33 108
12 132 -183 217 -169 73 -243 118 -251 151 -12 48 1 152 23 181 43 59 74 68
228 67 89 -1 167 -7 215 -18 41 -9 89 -16 105 -16 31 0 73 23 88 48 20 32 12
-1 -34 -143z"/>
</g>
</svg>
